<?xml version="1.0" encoding="UTF-8"?>
<svg xmlns="http://www.w3.org/2000/svg" xmlns:xlink="http://www.w3.org/1999/xlink" viewBox="0 0 500 500">
  <defs>
    <style>
      .cls-1 {
        fill: #d1d3d4;
      }

      .cls-1, .cls-2, .cls-3, .cls-4, .cls-5, .cls-6, .cls-7, .cls-8, .cls-9 {
        stroke: #231f20;
        stroke-miterlimit: 10;
      }

      .cls-1, .cls-2, .cls-3, .cls-4, .cls-5, .cls-6, .cls-8 {
        stroke-width: 3px;
      }

      .cls-2, .cls-7 {
        fill: #d54598;
      }

      .cls-3 {
        fill: #e9a2c8;
      }

      .cls-4 {
        fill: #ce78b1;
      }

      .cls-5 {
        fill: url(#White_Black-2);
      }

      .cls-6 {
        fill: url(#White_Black);
      }

      .cls-7, .cls-9 {
        stroke-width: 2px;
      }

      .cls-8 {
        fill: #231f20;
      }

      .cls-9 {
        fill: #a7a9ac;
      }
    </style>
    <linearGradient id="White_Black" data-name="White, Black" x1="32.96" y1="29.18" x2="473.08" y2="29.18" gradientUnits="userSpaceOnUse">
      <stop offset="0" stop-color="#fff"/>
      <stop offset="1" stop-color="#231f20"/>
    </linearGradient>
    <linearGradient id="White_Black-2" data-name="White, Black" x1="33.62" y1="273.5" x2="472.98" y2="273.5" xlink:href="#White_Black"/>
  </defs>
  <g id="Layer_1" data-name="Layer 1">
    <polyline class="cls-6" points="32.96 52.63 114.62 5.73 403.03 5.73 473.08 51.97"/>
    <rect class="cls-5" x="33.62" y="52.17" width="439.36" height="442.67"/>
    <rect class="cls-1" x="66.15" y="85.04" width="374.3" height="377.13"/>
    <rect class="cls-9" x="430.49" y="120.72" width="19.23" height="44.87"/>
    <rect class="cls-9" x="430.49" y="389.21" width="19.23" height="44.87"/>
  </g>
  <g id="Layer_4" data-name="Layer 4">
    <g>
      <rect class="cls-7" x="42.75" y="228.61" width="292.04" height="15.14" transform="translate(-110.15 281.57) rotate(-60)"/>
      <rect class="cls-7" x="106.2" y="338.65" width="292.05" height="15.14"/>
      <rect class="cls-7" x="181.24" y="298.43" width="15.14" height="168.68" transform="translate(-237.08 354.89) rotate(-60)"/>
      <rect class="cls-7" x="308.14" y="78.62" width="15.14" height="168.68" transform="translate(16.73 354.88) rotate(-60)"/>
      <rect class="cls-7" x="104.51" y="155.33" width="168.68" height="15.14" transform="translate(-56.15 116.25) rotate(-30)"/>
      <rect class="cls-7" x="308.24" y="90.16" width="15.14" height="292.04" transform="translate(-75.78 189.55) rotate(-30)"/>
      <rect class="cls-7" x="117.78" y="188.48" width="15.14" height="168.68"/>
      <rect class="cls-7" x="371.63" y="188.48" width="15.14" height="168.68"/>
      <rect class="cls-7" x="242.35" y="376.07" width="146.7" height="13.22" transform="translate(-149.05 209.13) rotate(-30)"/>
      <path class="cls-7" d="m406.82,362.08c-8.75,15.23-28.27,20.42-43.49,11.67-15.23-8.75-20.42-28.27-11.67-43.49,8.75-15.23,28.27-20.42,43.49-11.67,15.32,8.84,20.52,28.27,11.67,43.49"/>
      <path class="cls-7" d="m152.8,215.37c-8.75,15.23-28.27,20.42-43.49,11.67-15.23-8.75-20.42-28.27-11.67-43.49,8.75-15.23,28.27-20.42,43.49-11.67,15.23,8.84,20.42,28.27,11.67,43.49"/>
      <path class="cls-7" d="m97.73,362.08c-8.75-15.23-3.56-34.65,11.67-43.49,15.23-8.75,34.65-3.56,43.49,11.67,8.75,15.23,3.56,34.65-11.67,43.49-15.32,8.75-34.74,3.56-43.49-11.67"/>
      <path class="cls-7" d="m351.75,215.37c-8.75-15.23-3.56-34.65,11.67-43.49,15.23-8.75,34.65-3.56,43.49,11.67,8.75,15.23,3.56,34.65-11.67,43.49-15.23,8.75-34.74,3.56-43.49-11.67"/>
      <path class="cls-7" d="m252.27,451.35c-17.6,0-31.82-14.22-31.82-31.82s14.22-31.82,31.82-31.82,31.82,14.22,31.82,31.82-14.22,31.82-31.82,31.82"/>
      <path class="cls-7" d="m252.27,157.93c-17.6,0-31.82-14.22-31.82-31.82s14.22-31.82,31.82-31.82,31.82,14.22,31.82,31.82-14.22,31.82-31.82,31.82"/>
    </g>
    <g>
      <ellipse class="cls-2" cx="125.36" cy="345.11" rx="39.46" ry="38.17"/>
      <line class="cls-8" x1="125.36" y1="363.47" x2="125.36" y2="383.51"/>
      <line class="cls-8" x1="86.9" y1="345.11" x2="104.39" y2="345.11"/>
      <line class="cls-8" x1="125.36" y1="306.6" x2="125.36" y2="326.87"/>
      <line class="cls-8" x1="164.79" y1="345.11" x2="143.9" y2="345.11"/>
      <ellipse class="cls-4" cx="125.36" cy="345.11" rx="19.35" ry="18.71"/>
      <rect class="cls-3" x="151.33" y="352.66" width="5.82" height="41.89" transform="translate(-219 218.49) rotate(-45)"/>
    </g>
  </g>
</svg>